<svg width="13" height="12" viewBox="0 0 13 12" fill="none" xmlns="http://www.w3.org/2000/svg">
<path d="M6.60153 3.99915C5.49978 3.99915 4.60068 4.89826 4.60068 6C4.60068 7.10174 5.49978 8.00085 6.60153 8.00085C7.70327 8.00085 8.60238 7.10174 8.60238 6C8.60238 4.89826 7.70327 3.99915 6.60153 3.99915ZM12.6026 6C12.6026 5.17144 12.6101 4.35039 12.5636 3.52333C12.517 2.56268 12.2979 1.7101 11.5954 1.00763C10.8914 0.303651 10.0404 0.0860043 9.0797 0.0394728C8.25114 -0.00705862 7.43009 0.000446468 6.60303 0.000446468C5.77447 0.000446468 4.95341 -0.00705862 4.12635 0.0394728C3.16571 0.0860043 2.31313 0.305152 1.61065 1.00763C0.906679 1.7116 0.689032 2.56268 0.6425 3.52333C0.595969 4.35189 0.603474 5.17294 0.603474 6C0.603474 6.82706 0.595969 7.64961 0.6425 8.47667C0.689032 9.43732 0.90818 10.2899 1.61065 10.9924C2.31463 11.6963 3.16571 11.914 4.12635 11.9605C4.95491 12.0071 5.77597 11.9996 6.60303 11.9996C7.43159 11.9996 8.25264 12.0071 9.0797 11.9605C10.0404 11.914 10.8929 11.6948 11.5954 10.9924C12.2994 10.2884 12.517 9.43732 12.5636 8.47667C12.6116 7.64961 12.6026 6.82856 12.6026 6V6ZM6.60153 9.07858C4.89788 9.07858 3.52295 7.70365 3.52295 6C3.52295 4.29635 4.89788 2.92142 6.60153 2.92142C8.30518 2.92142 9.68011 4.29635 9.68011 6C9.68011 7.70365 8.30518 9.07858 6.60153 9.07858ZM9.80619 3.51432C9.40842 3.51432 9.08721 3.1931 9.08721 2.79533C9.08721 2.39757 9.40842 2.07635 9.80619 2.07635C10.204 2.07635 10.5252 2.39757 10.5252 2.79533C10.5253 2.88979 10.5068 2.98333 10.4707 3.07062C10.4346 3.1579 10.3816 3.23721 10.3149 3.304C10.2481 3.37079 10.1688 3.42374 10.0815 3.45983C9.99419 3.49592 9.90065 3.51444 9.80619 3.51432V3.51432Z" fill="white"/>
</svg>
