<svg width="10" height="13" viewBox="0 0 10 13" fill="none" xmlns="http://www.w3.org/2000/svg">
<path fill-rule="evenodd" clip-rule="evenodd" d="M1.53496 1.83503C2.45394 0.916055 3.70034 0.39978 4.99996 0.39978C6.29959 0.39978 7.54599 0.916055 8.46496 1.83503C9.38394 2.75401 9.90021 4.0004 9.90021 5.30003C9.90021 6.59966 9.38394 7.84606 8.46496 8.76503L4.99996 12.23L1.53496 8.76503C1.0799 8.31002 0.718927 7.76982 0.472648 7.17529C0.226368 6.58077 0.0996094 5.94355 0.0996094 5.30003C0.0996094 4.65651 0.226368 4.01929 0.472648 3.42477C0.718927 2.83024 1.0799 2.29004 1.53496 1.83503ZM4.99996 6.70003C5.37127 6.70003 5.72736 6.55253 5.98991 6.28998C6.25246 6.02743 6.39996 5.67133 6.39996 5.30003C6.39996 4.92873 6.25246 4.57263 5.98991 4.31008C5.72736 4.04753 5.37127 3.90003 4.99996 3.90003C4.62866 3.90003 4.27257 4.04753 4.01001 4.31008C3.74746 4.57263 3.59996 4.92873 3.59996 5.30003C3.59996 5.67133 3.74746 6.02743 4.01001 6.28998C4.27257 6.55253 4.62866 6.70003 4.99996 6.70003Z" fill="white"/>
</svg>
