<svg width="13" height="12" viewBox="0 0 13 12" fill="none" xmlns="http://www.w3.org/2000/svg">
<path d="M6.94031 0C3.62766 0 0.94165 2.68601 0.94165 5.99866C0.94165 8.45436 2.41989 10.5646 4.53281 11.4939C4.51675 11.0761 4.53014 10.5726 4.63725 10.1174C4.75241 9.62999 5.40851 6.84758 5.40851 6.84758C5.40851 6.84758 5.2157 6.46463 5.2157 5.89958C5.2157 5.01049 5.72987 4.34635 6.37258 4.34635C6.91889 4.34635 7.18133 4.75608 7.18133 5.24615C7.18133 5.79513 6.83051 6.61459 6.65109 7.37514C6.50112 8.0125 6.96977 8.52935 7.59909 8.52935C8.73455 8.52935 9.50045 7.06985 9.50045 5.33988C9.50045 4.02499 8.61404 3.04218 7.00458 3.04218C5.18624 3.04218 4.05078 4.39991 4.05078 5.91564C4.05078 6.43785 4.2061 6.80741 4.44712 7.09127C4.55691 7.22249 4.57298 7.27605 4.53281 7.42602C4.50336 7.53582 4.43908 7.80094 4.40963 7.90806C4.36946 8.0607 4.24627 8.11426 4.10969 8.05802C3.27149 7.71524 2.8805 6.79937 2.8805 5.76568C2.8805 4.06249 4.31858 2.01919 7.16794 2.01919C9.45761 2.01919 10.9653 3.67686 10.9653 5.45503C10.9653 7.80897 9.65578 9.56572 7.72764 9.56572C7.07957 9.56572 6.47167 9.21491 6.26278 8.81857C6.26278 8.81857 5.91465 10.2004 5.83966 10.4682C5.7138 10.9315 5.46475 11.3921 5.23712 11.7536C5.77539 11.9116 6.3458 12 6.93763 12C10.2503 12 12.9363 9.31399 12.9363 6.00134C12.939 2.68601 10.253 0 6.94031 0Z" fill="white"/>
</svg>
