<svg width="16" height="12" viewBox="0 0 16 12" fill="none" xmlns="http://www.w3.org/2000/svg">
<path d="M15.3631 1.42188C14.8193 1.6625 14.2381 1.825 13.6256 1.9C14.2506 1.525 14.7318 0.93125 14.9568 0.225C14.3725 0.571875 13.7256 0.825 13.035 0.959375C12.4818 0.36875 11.6943 0 10.8256 0C9.15371 0 7.80059 1.35625 7.80059 3.02812C7.80059 3.26562 7.82559 3.49688 7.87871 3.71875C5.36309 3.59375 3.13184 2.3875 1.64121 0.553125C1.38184 1 1.23184 1.52187 1.23184 2.075C1.23184 3.125 1.76934 4.05313 2.58184 4.59688C2.08184 4.58438 1.61309 4.44688 1.20684 4.21875V4.25625C1.20684 5.725 2.25059 6.94688 3.63496 7.225C3.38184 7.29375 3.11309 7.33125 2.83809 7.33125C2.64434 7.33125 2.45371 7.3125 2.26934 7.275C2.65371 8.47812 3.77246 9.35313 5.09746 9.37813C4.06309 10.1906 2.75684 10.675 1.33809 10.675C1.09434 10.675 0.853711 10.6594 0.616211 10.6313C1.95059 11.5 3.54121 12 5.24746 12C10.8193 12 13.8631 7.38438 13.8631 3.38125C13.8631 3.25 13.86 3.11875 13.8537 2.99062C14.4443 2.5625 14.9568 2.03125 15.3631 1.42188Z" fill="white"/>
</svg>
